<svg width="390" height="258" viewBox="0 0 390 258" fill="none" xmlns="http://www.w3.org/2000/svg">
<g opacity="0.08">
<path d="M0 15.5H392" stroke="#3EAF7C" stroke-dasharray="1 1"/>
<path d="M0 31.5H392" stroke="#3EAF7C" stroke-dasharray="1 1"/>
<path d="M0 47.5H392" stroke="#3EAF7C" stroke-dasharray="1 1"/>
<path d="M0 63.5H392" stroke="#3EAF7C" stroke-dasharray="1 1"/>
<path d="M0 79.5H392" stroke="#3EAF7C" stroke-dasharray="1 1"/>
<path d="M0 95.5H392" stroke="#3EAF7C" stroke-dasharray="1 1"/>
<path d="M0 111.5H392" stroke="#3EAF7C" stroke-dasharray="1 1"/>
<path d="M0 127.5H392" stroke="#3EAF7C" stroke-dasharray="1 1"/>
<path d="M0 143.5H392" stroke="#3EAF7C" stroke-dasharray="1 1"/>
<path d="M0 159.5H392" stroke="#3EAF7C" stroke-dasharray="1 1"/>
<path d="M0 175.5H392" stroke="#3EAF7C" stroke-dasharray="1 1"/>
<path d="M0 191.5H392" stroke="#3EAF7C" stroke-dasharray="1 1"/>
<path d="M0 207.5H392" stroke="#3EAF7C" stroke-dasharray="1 1"/>
<path d="M0 223.5H392" stroke="#3EAF7C" stroke-dasharray="1 1"/>
<path d="M0 239.5H392" stroke="#3EAF7C" stroke-dasharray="1 1"/>
<path d="M0 255.5H392" stroke="#3EAF7C" stroke-dasharray="1 1"/>
<path d="M11.9999 0V256" stroke="#3EAF7C" stroke-dasharray="1 1"/>
<path d="M27.9999 0V256" stroke="#3EAF7C" stroke-dasharray="1 1"/>
<path d="M43.9999 0V256" stroke="#3EAF7C" stroke-dasharray="1 1"/>
<path d="M59.9999 0V256" stroke="#3EAF7C" stroke-dasharray="1 1"/>
<path d="M75.9999 0V256" stroke="#3EAF7C" stroke-dasharray="1 1"/>
<path d="M92 0V256" stroke="#3EAF7C" stroke-dasharray="1 1"/>
<path d="M108 0V256" stroke="#3EAF7C" stroke-dasharray="1 1"/>
<path d="M124 0V256" stroke="#3EAF7C" stroke-dasharray="1 1"/>
<path d="M140 0V256" stroke="#3EAF7C" stroke-dasharray="1 1"/>
<path d="M156 0V256" stroke="#3EAF7C" stroke-dasharray="1 1"/>
<path d="M172 0V256" stroke="#3EAF7C" stroke-dasharray="1 1"/>
<path d="M188 0V256" stroke="#3EAF7C" stroke-dasharray="1 1"/>
<path d="M204 0V256" stroke="#3EAF7C" stroke-dasharray="1 1"/>
<path d="M220 0V256" stroke="#3EAF7C" stroke-dasharray="1 1"/>
<path d="M236 0V256" stroke="#3EAF7C" stroke-dasharray="1 1"/>
<path d="M252 0V256" stroke="#3EAF7C" stroke-dasharray="1 1"/>
<path d="M268 0V256" stroke="#3EAF7C" stroke-dasharray="1 1"/>
<path d="M284 0V256" stroke="#3EAF7C" stroke-dasharray="1 1"/>
<path d="M300 0V256" stroke="#3EAF7C" stroke-dasharray="1 1"/>
<path d="M316 0V256" stroke="#3EAF7C" stroke-dasharray="1 1"/>
<path d="M332 0V256" stroke="#3EAF7C" stroke-dasharray="1 1"/>
<path d="M348 0V256" stroke="#3EAF7C" stroke-dasharray="1 1"/>
<path d="M364 0V256" stroke="#3EAF7C" stroke-dasharray="1 1"/>
<path d="M380 0V256" stroke="#3EAF7C" stroke-dasharray="1 1"/>
</g>
<g filter="url(#filter0_dd_12_4789)">
<rect x="91" y="50" width="207" height="159" rx="8" fill="#1B3A42" shape-rendering="crispEdges"/>
<rect x="90.5" y="49.5" width="208" height="160" rx="8.5" stroke="#CBD5E1" stroke-opacity="0.41" shape-rendering="crispEdges"/>
<g filter="url(#filter1_d_12_4789)">
<rect x="150" y="88" width="90" height="83" rx="2" fill="white" fill-opacity="0.01" shape-rendering="crispEdges"/>
<rect x="150.5" y="88.5" width="89" height="82" rx="1.5" stroke="#78757A" shape-rendering="crispEdges"/>
</g>
<rect x="191" y="103" width="8" height="8" rx="4" fill="#78757A"/>
<g filter="url(#filter2_d_12_4789)">
<rect x="179" y="147" width="32" height="8" rx="4" fill="#999999"/>
</g>
<rect x="161" y="124" width="68" height="4" rx="1" fill="#78757A"/>
<rect x="161" y="133" width="68" height="4" rx="1" fill="#78757A"/>
</g>
<defs>
<filter id="filter0_dd_12_4789" x="66" y="25" width="257" height="209" filterUnits="userSpaceOnUse" color-interpolation-filters="sRGB">
<feFlood flood-opacity="0" result="BackgroundImageFix"/>
<feColorMatrix in="SourceAlpha" type="matrix" values="0 0 0 0 0 0 0 0 0 0 0 0 0 0 0 0 0 0 127 0" result="hardAlpha"/>
<feOffset/>
<feGaussianBlur stdDeviation="12"/>
<feComposite in2="hardAlpha" operator="out"/>
<feColorMatrix type="matrix" values="0 0 0 0 0 0 0 0 0 0 0 0 0 0 0 0 0 0 0.04 0"/>
<feBlend mode="normal" in2="BackgroundImageFix" result="effect1_dropShadow_12_4789"/>
<feColorMatrix in="SourceAlpha" type="matrix" values="0 0 0 0 0 0 0 0 0 0 0 0 0 0 0 0 0 0 127 0" result="hardAlpha"/>
<feOffset dy="2"/>
<feGaussianBlur stdDeviation="1"/>
<feComposite in2="hardAlpha" operator="out"/>
<feColorMatrix type="matrix" values="0 0 0 0 0 0 0 0 0 0 0 0 0 0 0 0 0 0 0.04 0"/>
<feBlend mode="normal" in2="effect1_dropShadow_12_4789" result="effect2_dropShadow_12_4789"/>
<feBlend mode="normal" in="SourceGraphic" in2="effect2_dropShadow_12_4789" result="shape"/>
</filter>
<filter id="filter1_d_12_4789" x="149" y="88" width="92" height="85" filterUnits="userSpaceOnUse" color-interpolation-filters="sRGB">
<feFlood flood-opacity="0" result="BackgroundImageFix"/>
<feColorMatrix in="SourceAlpha" type="matrix" values="0 0 0 0 0 0 0 0 0 0 0 0 0 0 0 0 0 0 127 0" result="hardAlpha"/>
<feOffset dy="1"/>
<feGaussianBlur stdDeviation="0.5"/>
<feComposite in2="hardAlpha" operator="out"/>
<feColorMatrix type="matrix" values="0 0 0 0 0 0 0 0 0 0 0 0 0 0 0 0 0 0 0.04 0"/>
<feBlend mode="normal" in2="BackgroundImageFix" result="effect1_dropShadow_12_4789"/>
<feBlend mode="normal" in="SourceGraphic" in2="effect1_dropShadow_12_4789" result="shape"/>
</filter>
<filter id="filter2_d_12_4789" x="178" y="147" width="34" height="10" filterUnits="userSpaceOnUse" color-interpolation-filters="sRGB">
<feFlood flood-opacity="0" result="BackgroundImageFix"/>
<feColorMatrix in="SourceAlpha" type="matrix" values="0 0 0 0 0 0 0 0 0 0 0 0 0 0 0 0 0 0 127 0" result="hardAlpha"/>
<feOffset dy="1"/>
<feGaussianBlur stdDeviation="0.5"/>
<feComposite in2="hardAlpha" operator="out"/>
<feColorMatrix type="matrix" values="0 0 0 0 0 0 0 0 0 0 0 0 0 0 0 0 0 0 0.04 0"/>
<feBlend mode="normal" in2="BackgroundImageFix" result="effect1_dropShadow_12_4789"/>
<feBlend mode="normal" in="SourceGraphic" in2="effect1_dropShadow_12_4789" result="shape"/>
</filter>
</defs>
</svg>
