<svg width="389" height="258" viewBox="0 0 389 258" fill="none" xmlns="http://www.w3.org/2000/svg">
<g opacity="0.08">
<path d="M0 15.5H392" stroke="#3EAF7C" stroke-dasharray="1 1"/>
<path d="M0 31.5H392" stroke="#3EAF7C" stroke-dasharray="1 1"/>
<path d="M0 47.5H392" stroke="#3EAF7C" stroke-dasharray="1 1"/>
<path d="M0 63.5H392" stroke="#3EAF7C" stroke-dasharray="1 1"/>
<path d="M0 79.5H392" stroke="#3EAF7C" stroke-dasharray="1 1"/>
<path d="M0 95.5H392" stroke="#3EAF7C" stroke-dasharray="1 1"/>
<path d="M0 111.5H392" stroke="#3EAF7C" stroke-dasharray="1 1"/>
<path d="M0 127.5H392" stroke="#3EAF7C" stroke-dasharray="1 1"/>
<path d="M0 143.5H392" stroke="#3EAF7C" stroke-dasharray="1 1"/>
<path d="M0 159.5H392" stroke="#3EAF7C" stroke-dasharray="1 1"/>
<path d="M0 175.5H392" stroke="#3EAF7C" stroke-dasharray="1 1"/>
<path d="M0 191.5H392" stroke="#3EAF7C" stroke-dasharray="1 1"/>
<path d="M0 207.5H392" stroke="#3EAF7C" stroke-dasharray="1 1"/>
<path d="M0 223.5H392" stroke="#3EAF7C" stroke-dasharray="1 1"/>
<path d="M0 239.5H392" stroke="#3EAF7C" stroke-dasharray="1 1"/>
<path d="M0 255.5H392" stroke="#3EAF7C" stroke-dasharray="1 1"/>
<path d="M12 0V256" stroke="#3EAF7C" stroke-dasharray="1 1"/>
<path d="M28 0V256" stroke="#3EAF7C" stroke-dasharray="1 1"/>
<path d="M44 0V256" stroke="#3EAF7C" stroke-dasharray="1 1"/>
<path d="M60 0V256" stroke="#3EAF7C" stroke-dasharray="1 1"/>
<path d="M76 0V256" stroke="#3EAF7C" stroke-dasharray="1 1"/>
<path d="M92 0V256" stroke="#3EAF7C" stroke-dasharray="1 1"/>
<path d="M108 0V256" stroke="#3EAF7C" stroke-dasharray="1 1"/>
<path d="M124 0V256" stroke="#3EAF7C" stroke-dasharray="1 1"/>
<path d="M140 0V256" stroke="#3EAF7C" stroke-dasharray="1 1"/>
<path d="M156 0V256" stroke="#3EAF7C" stroke-dasharray="1 1"/>
<path d="M172 0V256" stroke="#3EAF7C" stroke-dasharray="1 1"/>
<path d="M188 0V256" stroke="#3EAF7C" stroke-dasharray="1 1"/>
<path d="M204 0V256" stroke="#3EAF7C" stroke-dasharray="1 1"/>
<path d="M220 0V256" stroke="#3EAF7C" stroke-dasharray="1 1"/>
<path d="M236 0V256" stroke="#3EAF7C" stroke-dasharray="1 1"/>
<path d="M252 0V256" stroke="#3EAF7C" stroke-dasharray="1 1"/>
<path d="M268 0V256" stroke="#3EAF7C" stroke-dasharray="1 1"/>
<path d="M284 0V256" stroke="#3EAF7C" stroke-dasharray="1 1"/>
<path d="M300 0V256" stroke="#3EAF7C" stroke-dasharray="1 1"/>
<path d="M316 0V256" stroke="#3EAF7C" stroke-dasharray="1 1"/>
<path d="M332 0V256" stroke="#3EAF7C" stroke-dasharray="1 1"/>
<path d="M348 0V256" stroke="#3EAF7C" stroke-dasharray="1 1"/>
<path d="M364 0V256" stroke="#3EAF7C" stroke-dasharray="1 1"/>
<path d="M380 0V256" stroke="#3EAF7C" stroke-dasharray="1 1"/>
</g>
<g filter="url(#filter0_dd_12_4662)">
<g clip-path="url(#clip0_12_4662)">
<rect x="84" y="50" width="207" height="159" rx="8" fill="#1B3A42" shape-rendering="crispEdges"/>
<rect x="97" y="64" width="40" height="4" rx="1" fill="#78757A"/>
<rect x="97" y="78" width="40" height="4" rx="1" fill="#78757A"/>
<rect x="97" y="106" width="40" height="4" rx="1" fill="#78757A"/>
<rect x="97" y="120" width="40" height="4" rx="1" fill="#78757A"/>
<rect x="97" y="134" width="40" height="4" rx="1" fill="#78757A"/>
<rect x="97" y="148" width="40" height="4" rx="1" fill="#78757A"/>
<rect x="97" y="162" width="40" height="4" rx="1" fill="#78757A"/>
<rect x="97" y="176" width="40" height="4" rx="1" fill="#78757A"/>
<rect x="97" y="190" width="40" height="4" rx="1" fill="#78757A"/>
<rect x="151" y="64" width="20" height="4" rx="1" fill="#78757A"/>
<rect x="151" y="78" width="20" height="4" rx="1" fill="#78757A"/>
<rect x="151" y="92" width="20" height="4" rx="1" fill="#78757A"/>
<rect x="188" y="120" width="20" height="4" rx="1" fill="#78757A"/>
<rect x="97" y="91" width="20" height="4" rx="1" fill="#78757A"/>
<rect x="151" y="106" width="20" height="4" rx="1" fill="#78757A"/>
<rect x="151" y="120" width="20" height="4" rx="1" fill="#78757A"/>
<rect x="151" y="134" width="20" height="4" rx="1" fill="#78757A"/>
<rect x="151" y="148" width="20" height="4" rx="1" fill="#78757A"/>
<rect x="151" y="162" width="20" height="4" rx="1" fill="#78757A"/>
<rect x="151" y="176" width="20" height="4" rx="1" fill="#78757A"/>
<rect x="151" y="190" width="20" height="4" rx="1" fill="#78757A"/>
<rect x="188" y="64" width="40" height="4" rx="1" fill="#78757A"/>
<rect x="188" y="78" width="40" height="4" rx="1" fill="#78757A"/>
<rect x="188" y="92" width="40" height="4" rx="1" fill="#78757A"/>
<rect x="188" y="106" width="40" height="4" rx="1" fill="#78757A"/>
<rect x="188" y="134" width="40" height="4" rx="1" fill="#78757A"/>
<rect x="188" y="148" width="40" height="4" rx="1" fill="#78757A"/>
<rect x="188" y="162" width="40" height="4" rx="1" fill="#78757A"/>
<rect x="188" y="176" width="40" height="4" rx="1" fill="#78757A"/>
<rect x="188" y="190" width="40" height="4" rx="1" fill="#78757A"/>
<rect x="238" y="64" width="40" height="4" rx="1" fill="#78757A"/>
<rect x="238" y="78" width="40" height="4" rx="1" fill="#78757A"/>
<rect x="238" y="92" width="40" height="4" rx="1" fill="#78757A"/>
<rect x="238" y="106" width="40" height="4" rx="1" fill="#78757A"/>
<rect x="238" y="120" width="40" height="4" rx="1" fill="#78757A"/>
<rect x="238" y="134" width="40" height="4" rx="1" fill="#78757A"/>
<rect x="238" y="148" width="40" height="4" rx="1" fill="#78757A"/>
<rect x="238" y="162" width="40" height="4" rx="1" fill="#78757A"/>
<rect x="238" y="176" width="40" height="4" rx="1" fill="#78757A"/>
<rect x="238" y="190" width="40" height="4" rx="1" fill="#78757A"/>
</g>
<rect x="83.5" y="49.5" width="208" height="160" rx="8.5" stroke="#CBD5E1" stroke-opacity="0.41" shape-rendering="crispEdges"/>
</g>
<defs>
<filter id="filter0_dd_12_4662" x="59" y="25" width="257" height="209" filterUnits="userSpaceOnUse" color-interpolation-filters="sRGB">
<feFlood flood-opacity="0" result="BackgroundImageFix"/>
<feColorMatrix in="SourceAlpha" type="matrix" values="0 0 0 0 0 0 0 0 0 0 0 0 0 0 0 0 0 0 127 0" result="hardAlpha"/>
<feOffset/>
<feGaussianBlur stdDeviation="12"/>
<feComposite in2="hardAlpha" operator="out"/>
<feColorMatrix type="matrix" values="0 0 0 0 0 0 0 0 0 0 0 0 0 0 0 0 0 0 0.04 0"/>
<feBlend mode="normal" in2="BackgroundImageFix" result="effect1_dropShadow_12_4662"/>
<feColorMatrix in="SourceAlpha" type="matrix" values="0 0 0 0 0 0 0 0 0 0 0 0 0 0 0 0 0 0 127 0" result="hardAlpha"/>
<feOffset dy="2"/>
<feGaussianBlur stdDeviation="1"/>
<feComposite in2="hardAlpha" operator="out"/>
<feColorMatrix type="matrix" values="0 0 0 0 0 0 0 0 0 0 0 0 0 0 0 0 0 0 0.04 0"/>
<feBlend mode="normal" in2="effect1_dropShadow_12_4662" result="effect2_dropShadow_12_4662"/>
<feBlend mode="normal" in="SourceGraphic" in2="effect2_dropShadow_12_4662" result="shape"/>
</filter>
<clipPath id="clip0_12_4662">
<rect x="84" y="50" width="207" height="159" rx="8" fill="white"/>
</clipPath>
</defs>
</svg>
