<svg width="296" height="141" viewBox="0 0 296 141" fill="none" xmlns="http://www.w3.org/2000/svg">
<path d="M93.5 38C93.5 34.9624 95.9624 32.5 99 32.5H140C143.038 32.5 145.5 34.9624 145.5 38V103C145.5 106.038 143.038 108.5 140 108.5H99C95.9624 108.5 93.5 106.038 93.5 103V38Z" fill="white"/>
<path d="M93.5 38C93.5 34.9624 95.9624 32.5 99 32.5H140C143.038 32.5 145.5 34.9624 145.5 38V103C145.5 106.038 143.038 108.5 140 108.5H99C95.9624 108.5 93.5 106.038 93.5 103V38Z" stroke="#D3D4D5"/>
<rect x="102" y="43.5" width="33" height="3" rx="1.5" fill="#ABADAF"/>
<rect x="102" y="49.5" width="20" height="3" rx="1.5" fill="#D3D4D5"/>
<rect x="102" y="64.5" width="33" height="3" rx="1.5" fill="#ABADAF"/>
<path d="M109.5 73.75C109.5 75.4141 108.152 76.75 106.5 76.75C104.836 76.75 103.5 75.4141 103.5 73.75C103.5 72.0977 104.836 70.75 106.5 70.75C108.152 70.75 109.5 72.0977 109.5 73.75Z" fill="#D3D4D5"/>
<rect x="115" y="72.5" width="20" height="3" rx="1.5" fill="#D3D4D5"/>
<path d="M103.5 83.75C103.5 82.0977 104.836 80.75 106.5 80.75C108.152 80.75 109.5 82.0977 109.5 83.75C109.5 85.4141 108.152 86.75 106.5 86.75C104.836 86.75 103.5 85.4141 103.5 83.75ZM106.5 84.875C107.121 84.875 107.625 84.3711 107.625 83.75C107.625 83.1289 107.121 82.625 106.5 82.625C105.867 82.625 105.375 83.1289 105.375 83.75C105.375 84.3711 105.867 84.875 106.5 84.875Z" fill="#8952E0"/>
<rect x="115" y="82.5" width="20" height="3" rx="1.5" fill="#D3D4D5"/>
<path d="M109.5 93.75C109.5 95.4141 108.152 96.75 106.5 96.75C104.836 96.75 103.5 95.4141 103.5 93.75C103.5 92.0977 104.836 90.75 106.5 90.75C108.152 90.75 109.5 92.0977 109.5 93.75Z" fill="#D3D4D5"/>
<rect x="115" y="92.5" width="20" height="3" rx="1.5" fill="#D3D4D5"/>
<path d="M151 38C151 34.6863 153.686 32 157 32H197C200.314 32 203 34.6863 203 38V103C203 106.314 200.314 109 197 109H157C153.686 109 151 106.314 151 103V38Z" fill="#1D2025"/>
<rect x="160" y="43" width="33" height="3" rx="1.5" fill="#7D7F83"/>
<rect x="160" y="49" width="20" height="3" rx="1.5" fill="#ABADAF"/>
<rect x="160" y="65" width="33" height="3" rx="1.5" fill="#7D7F83"/>
<circle cx="165" cy="74" r="2" fill="#F9FAFA"/>
<path d="M161.5 74.25C161.5 72.5977 162.836 71.25 164.5 71.25C166.152 71.25 167.5 72.5977 167.5 74.25C167.5 75.9141 166.152 77.25 164.5 77.25C162.836 77.25 161.5 75.9141 161.5 74.25ZM164.5 75.375C165.121 75.375 165.625 74.8711 165.625 74.25C165.625 73.6289 165.121 73.125 164.5 73.125C163.867 73.125 163.375 73.6289 163.375 74.25C163.375 74.8711 163.867 75.375 164.5 75.375Z" fill="#8952E0"/>
<rect x="173" y="73" width="20" height="3" rx="1.5" fill="#ABADAF"/>
<path d="M164.5 87.25C162.836 87.25 161.5 85.9141 161.5 84.25C161.5 82.5977 162.836 81.25 164.5 81.25C166.152 81.25 167.5 82.5977 167.5 84.25C167.5 85.9141 166.152 87.25 164.5 87.25Z" fill="#7D7F83"/>
<rect x="173" y="83" width="20" height="3" rx="1.5" fill="#7D7F83"/>
<path d="M164.5 97.25C162.836 97.25 161.5 95.9141 161.5 94.25C161.5 92.5977 162.836 91.25 164.5 91.25C166.152 91.25 167.5 92.5977 167.5 94.25C167.5 95.9141 166.152 97.25 164.5 97.25Z" fill="#7D7F83"/>
<rect x="173" y="93" width="20" height="3" rx="1.5" fill="#7D7F83"/>
</svg>
