<svg width="296" height="141" viewBox="0 0 296 141" fill="none" xmlns="http://www.w3.org/2000/svg">
<path d="M113.5 57C113.5 53.9624 115.962 51.5 119 51.5H177C180.038 51.5 182.5 53.9624 182.5 57V84C182.5 87.0376 180.038 89.5 177 89.5H119C115.962 89.5 113.5 87.0376 113.5 84V57Z" fill="white"/>
<path d="M113.5 57C113.5 53.9624 115.962 51.5 119 51.5H177C180.038 51.5 182.5 53.9624 182.5 57V84C182.5 87.0376 180.038 89.5 177 89.5H119C115.962 89.5 113.5 87.0376 113.5 84V57Z" stroke="#D3D4D5"/>
<rect x="121" y="59" width="36" height="3" rx="1.5" fill="#ABADAF"/>
<rect x="121" y="67" width="39" height="3" rx="1.5" fill="#D3D4D5"/>
<rect x="163" y="67" width="11" height="3" rx="1.5" fill="#D3D4D5"/>
<rect x="121" y="73" width="53" height="3" rx="1.5" fill="#D3D4D5"/>
<rect x="121" y="79" width="30" height="3" rx="1.5" fill="#D3D4D5"/>
</svg>
