<svg width="341" height="170" viewBox="0 0 341 170" fill="none" xmlns="http://www.w3.org/2000/svg">
<rect y="4" width="1" height="1" rx="0.5" fill="#BEBEBE"/>
<rect y="85.5" width="1" height="1" rx="0.5" fill="#BEBEBE"/>
<rect x="20" y="4" width="1" height="1" rx="0.5" fill="#BEBEBE"/>
<rect x="20" y="85.5" width="1" height="1" rx="0.5" fill="#BEBEBE"/>
<rect x="40" y="4" width="1" height="1" rx="0.5" fill="#BEBEBE"/>
<rect x="40" y="85.5" width="1" height="1" rx="0.5" fill="#BEBEBE"/>
<rect x="60" y="4" width="1" height="1" rx="0.5" fill="#BEBEBE"/>
<rect x="60" y="85.5" width="1" height="1" rx="0.5" fill="#BEBEBE"/>
<rect x="80" y="4" width="1" height="1" rx="0.5" fill="#BEBEBE"/>
<rect x="80" y="85.5" width="1" height="1" rx="0.5" fill="#BEBEBE"/>
<rect x="100" y="4" width="1" height="1" rx="0.5" fill="#BEBEBE"/>
<rect x="100" y="85.5" width="1" height="1" rx="0.5" fill="#BEBEBE"/>
<rect x="120" y="4" width="1" height="1" rx="0.5" fill="#BEBEBE"/>
<rect x="120" y="85.5" width="1" height="1" rx="0.5" fill="#BEBEBE"/>
<g filter="url(#filter0_d_12_4621)">
<rect x="139.5" y="3.5" width="2" height="2" rx="1" fill="#3291FF"/>
</g>
<g filter="url(#filter1_d_12_4621)">
<rect x="139.5" y="85" width="2" height="2" rx="1" fill="#3291FF"/>
</g>
<rect x="160" y="4" width="1" height="1" rx="0.5" fill="#BEBEBE"/>
<rect x="160" y="85.5" width="1" height="1" rx="0.5" fill="#BEBEBE"/>
<rect x="180" y="4" width="1" height="1" rx="0.5" fill="#BEBEBE"/>
<rect x="180" y="85.5" width="1" height="1" rx="0.5" fill="#BEBEBE"/>
<rect x="200" y="4" width="1" height="1" rx="0.5" fill="#BEBEBE"/>
<rect x="200" y="85.5" width="1" height="1" rx="0.5" fill="#BEBEBE"/>
<rect x="220" y="4" width="1" height="1" rx="0.5" fill="#BEBEBE"/>
<rect x="220" y="85.5" width="1" height="1" rx="0.5" fill="#BEBEBE"/>
<rect x="240" y="4" width="1" height="1" rx="0.5" fill="#BEBEBE"/>
<rect x="240" y="85.5" width="1" height="1" rx="0.5" fill="#BEBEBE"/>
<rect x="260" y="4" width="1" height="1" rx="0.5" fill="#BEBEBE"/>
<rect x="260" y="85.5" width="1" height="1" rx="0.5" fill="#BEBEBE"/>
<rect x="280" y="4" width="1" height="1" rx="0.5" fill="#BEBEBE"/>
<rect x="280" y="85.5" width="1" height="1" rx="0.5" fill="#BEBEBE"/>
<g filter="url(#filter2_dd_12_4621)">
<rect x="300" y="4" width="1" height="1" rx="0.5" fill="white"/>
</g>
<g filter="url(#filter3_dd_12_4621)">
<rect x="300" y="85.5" width="1" height="1" rx="0.5" fill="white"/>
</g>
<rect x="320" y="4" width="1" height="1" rx="0.5" fill="#BEBEBE"/>
<rect x="320" y="85.5" width="1" height="1" rx="0.5" fill="#BEBEBE"/>
<rect x="340" y="4" width="1" height="1" rx="0.5" fill="#BEBEBE"/>
<rect x="340" y="85.5" width="1" height="1" rx="0.5" fill="#BEBEBE"/>
<rect y="24" width="1" height="1" rx="0.5" fill="#BEBEBE"/>
<rect y="105.5" width="1" height="1" rx="0.5" fill="#BEBEBE"/>
<rect x="20" y="24" width="1" height="1" rx="0.5" fill="#BEBEBE"/>
<rect x="20" y="105.5" width="1" height="1" rx="0.5" fill="#BEBEBE"/>
<rect x="40" y="24" width="1" height="1" rx="0.5" fill="#BEBEBE"/>
<rect x="40" y="105.5" width="1" height="1" rx="0.5" fill="#BEBEBE"/>
<rect x="60" y="24" width="1" height="1" rx="0.5" fill="#BEBEBE"/>
<rect x="60" y="105.5" width="1" height="1" rx="0.5" fill="#BEBEBE"/>
<rect x="80" y="24" width="1" height="1" rx="0.5" fill="#BEBEBE"/>
<rect x="80" y="105.5" width="1" height="1" rx="0.5" fill="#BEBEBE"/>
<rect x="100" y="24" width="1" height="1" rx="0.5" fill="#BEBEBE"/>
<rect x="100" y="105.5" width="1" height="1" rx="0.5" fill="#BEBEBE"/>
<rect x="120" y="24" width="1" height="1" rx="0.5" fill="#BEBEBE"/>
<rect x="120" y="105.5" width="1" height="1" rx="0.5" fill="#BEBEBE"/>
<rect x="140" y="24" width="1" height="1" rx="0.5" fill="#BEBEBE"/>
<rect x="140" y="105.5" width="1" height="1" rx="0.5" fill="#BEBEBE"/>
<g filter="url(#filter4_d_12_4621)">
<rect x="159.5" y="23.5" width="2" height="2" rx="1" fill="#3291FF"/>
</g>
<g filter="url(#filter5_d_12_4621)">
<rect x="159.5" y="105" width="2" height="2" rx="1" fill="#3291FF"/>
</g>
<rect x="180" y="24" width="1" height="1" rx="0.5" fill="#BEBEBE"/>
<rect x="180" y="105.5" width="1" height="1" rx="0.5" fill="#BEBEBE"/>
<rect x="200" y="24" width="1" height="1" rx="0.5" fill="#BEBEBE"/>
<rect x="200" y="105.5" width="1" height="1" rx="0.5" fill="#BEBEBE"/>
<rect x="220" y="24" width="1" height="1" rx="0.5" fill="#BEBEBE"/>
<rect x="220" y="105.5" width="1" height="1" rx="0.5" fill="#BEBEBE"/>
<rect x="240" y="24" width="1" height="1" rx="0.5" fill="#BEBEBE"/>
<rect x="240" y="105.5" width="1" height="1" rx="0.5" fill="#BEBEBE"/>
<rect x="260" y="24" width="1" height="1" rx="0.5" fill="#BEBEBE"/>
<rect x="260" y="105.5" width="1" height="1" rx="0.5" fill="#BEBEBE"/>
<rect x="280" y="24" width="1" height="1" rx="0.5" fill="#BEBEBE"/>
<rect x="280" y="105.5" width="1" height="1" rx="0.5" fill="#BEBEBE"/>
<rect x="300" y="24" width="1" height="1" rx="0.5" fill="#BEBEBE"/>
<rect x="300" y="105.5" width="1" height="1" rx="0.5" fill="#BEBEBE"/>
<g filter="url(#filter6_dd_12_4621)">
<rect x="320" y="24" width="1" height="1" rx="0.5" fill="white"/>
</g>
<g filter="url(#filter7_dd_12_4621)">
<rect x="320" y="105.5" width="1" height="1" rx="0.5" fill="white"/>
</g>
<rect x="340" y="24" width="1" height="1" rx="0.5" fill="#BEBEBE"/>
<rect x="340" y="105.5" width="1" height="1" rx="0.5" fill="#BEBEBE"/>
<rect y="44" width="1" height="1" rx="0.5" fill="#BEBEBE"/>
<rect y="125.5" width="1" height="1" rx="0.5" fill="#BEBEBE"/>
<rect x="20" y="44" width="1" height="1" rx="0.5" fill="#BEBEBE"/>
<rect x="20" y="125.5" width="1" height="1" rx="0.5" fill="#BEBEBE"/>
<rect x="40" y="44" width="1" height="1" rx="0.5" fill="#BEBEBE"/>
<rect x="40" y="125.5" width="1" height="1" rx="0.5" fill="#BEBEBE"/>
<rect x="60" y="44" width="1" height="1" rx="0.5" fill="#BEBEBE"/>
<rect x="60" y="125.5" width="1" height="1" rx="0.5" fill="#BEBEBE"/>
<rect x="80" y="44" width="1" height="1" rx="0.5" fill="#BEBEBE"/>
<rect x="80" y="125.5" width="1" height="1" rx="0.5" fill="#BEBEBE"/>
<rect x="100" y="44" width="1" height="1" rx="0.5" fill="#BEBEBE"/>
<rect x="100" y="125.5" width="1" height="1" rx="0.5" fill="#BEBEBE"/>
<rect x="120" y="44" width="1" height="1" rx="0.5" fill="#BEBEBE"/>
<rect x="120" y="125.5" width="1" height="1" rx="0.5" fill="#BEBEBE"/>
<rect x="140" y="44" width="1" height="1" rx="0.5" fill="#BEBEBE"/>
<rect x="140" y="125.5" width="1" height="1" rx="0.5" fill="#BEBEBE"/>
<rect x="160" y="44" width="1" height="1" rx="0.5" fill="#BEBEBE"/>
<rect x="160" y="125.5" width="1" height="1" rx="0.5" fill="#BEBEBE"/>
<rect x="180" y="44" width="1" height="1" rx="0.5" fill="#BEBEBE"/>
<rect x="180" y="125.5" width="1" height="1" rx="0.5" fill="#BEBEBE"/>
<rect x="200" y="44" width="1" height="1" rx="0.5" fill="#BEBEBE"/>
<rect x="200" y="125.5" width="1" height="1" rx="0.5" fill="#BEBEBE"/>
<rect x="220" y="44" width="1" height="1" rx="0.5" fill="#BEBEBE"/>
<rect x="220" y="125.5" width="1" height="1" rx="0.5" fill="#BEBEBE"/>
<rect x="240" y="44" width="1" height="1" rx="0.5" fill="#BEBEBE"/>
<rect x="240" y="125.5" width="1" height="1" rx="0.5" fill="#BEBEBE"/>
<rect x="260" y="44" width="1" height="1" rx="0.5" fill="#BEBEBE"/>
<rect x="260" y="125.5" width="1" height="1" rx="0.5" fill="#BEBEBE"/>
<rect x="280" y="44" width="1" height="1" rx="0.5" fill="#BEBEBE"/>
<rect x="280" y="125.5" width="1" height="1" rx="0.5" fill="#BEBEBE"/>
<rect x="300" y="44" width="1" height="1" rx="0.5" fill="#BEBEBE"/>
<rect x="300" y="125.5" width="1" height="1" rx="0.5" fill="#BEBEBE"/>
<rect x="320" y="44" width="1" height="1" rx="0.5" fill="#BEBEBE"/>
<rect x="320" y="125.5" width="1" height="1" rx="0.5" fill="#BEBEBE"/>
<rect x="340" y="44" width="1" height="1" rx="0.5" fill="#BEBEBE"/>
<rect x="340" y="125.5" width="1" height="1" rx="0.5" fill="#BEBEBE"/>
<rect y="64" width="1" height="1" rx="0.5" fill="#BEBEBE"/>
<rect y="145.5" width="1" height="1" rx="0.5" fill="#BEBEBE"/>
<rect x="20" y="64" width="1" height="1" rx="0.5" fill="#BEBEBE"/>
<rect x="20" y="145.5" width="1" height="1" rx="0.5" fill="#BEBEBE"/>
<rect x="40" y="64" width="1" height="1" rx="0.5" fill="#BEBEBE"/>
<rect x="40" y="145.5" width="1" height="1" rx="0.5" fill="#BEBEBE"/>
<rect x="60" y="64" width="1" height="1" rx="0.5" fill="#BEBEBE"/>
<rect x="60" y="145.5" width="1" height="1" rx="0.5" fill="#BEBEBE"/>
<rect x="80" y="64" width="1" height="1" rx="0.5" fill="#BEBEBE"/>
<rect x="80" y="145.5" width="1" height="1" rx="0.5" fill="#BEBEBE"/>
<rect x="100" y="64" width="1" height="1" rx="0.5" fill="#BEBEBE"/>
<rect x="100" y="145.5" width="1" height="1" rx="0.5" fill="#BEBEBE"/>
<g filter="url(#filter8_d_12_4621)">
<rect x="120" y="64" width="1" height="1" rx="0.5" fill="#3291FF"/>
</g>
<g filter="url(#filter9_d_12_4621)">
<rect x="120" y="145.5" width="1" height="1" rx="0.5" fill="#3291FF"/>
</g>
<rect x="140" y="64" width="1" height="1" rx="0.5" fill="#BEBEBE"/>
<rect x="140" y="145.5" width="1" height="1" rx="0.5" fill="#BEBEBE"/>
<rect x="160" y="64" width="1" height="1" rx="0.5" fill="#BEBEBE"/>
<rect x="160" y="145.5" width="1" height="1" rx="0.5" fill="#BEBEBE"/>
<rect x="180" y="64" width="1" height="1" rx="0.5" fill="#BEBEBE"/>
<rect x="180" y="145.5" width="1" height="1" rx="0.5" fill="#BEBEBE"/>
<rect x="200" y="64" width="1" height="1" rx="0.5" fill="#BEBEBE"/>
<rect x="200" y="145.5" width="1" height="1" rx="0.5" fill="#BEBEBE"/>
<rect x="220" y="64" width="1" height="1" rx="0.5" fill="#BEBEBE"/>
<rect x="220" y="145.5" width="1" height="1" rx="0.5" fill="#BEBEBE"/>
<rect x="240" y="64" width="1" height="1" rx="0.5" fill="#BEBEBE"/>
<rect x="240" y="145.5" width="1" height="1" rx="0.5" fill="#BEBEBE"/>
<g filter="url(#filter10_dd_12_4621)">
<rect x="260" y="64" width="1" height="1" rx="0.5" fill="white"/>
</g>
<g filter="url(#filter11_dd_12_4621)">
<rect x="260" y="145.5" width="1" height="1" rx="0.5" fill="white"/>
</g>
<rect x="280" y="64" width="1" height="1" rx="0.5" fill="#BEBEBE"/>
<rect x="280" y="145.5" width="1" height="1" rx="0.5" fill="#BEBEBE"/>
<rect x="300" y="64" width="1" height="1" rx="0.5" fill="#BEBEBE"/>
<rect x="300" y="145.5" width="1" height="1" rx="0.5" fill="#BEBEBE"/>
<g filter="url(#filter12_d_12_4621)">
<rect x="320" y="64" width="1" height="1" rx="0.5" fill="#3291FF"/>
</g>
<g filter="url(#filter13_d_12_4621)">
<rect x="320" y="145.5" width="1" height="1" rx="0.5" fill="#3291FF"/>
</g>
<rect x="340" y="64" width="1" height="1" rx="0.5" fill="#BEBEBE"/>
<rect x="340" y="145.5" width="1" height="1" rx="0.5" fill="#BEBEBE"/>
<rect y="84" width="1" height="1" rx="0.5" fill="#BEBEBE"/>
<rect y="165.5" width="1" height="1" rx="0.5" fill="#BEBEBE"/>
<rect x="20" y="84" width="1" height="1" rx="0.5" fill="#BEBEBE"/>
<rect x="20" y="165.5" width="1" height="1" rx="0.5" fill="#BEBEBE"/>
<g filter="url(#filter14_dd_12_4621)">
<rect x="40" y="84" width="1" height="1" rx="0.5" fill="white"/>
</g>
<g filter="url(#filter15_dd_12_4621)">
<rect x="40" y="165.5" width="1" height="1" rx="0.5" fill="white"/>
</g>
<rect x="60" y="84" width="1" height="1" rx="0.5" fill="#BEBEBE"/>
<rect x="60" y="165.5" width="1" height="1" rx="0.5" fill="#BEBEBE"/>
<rect x="80" y="84" width="1" height="1" rx="0.5" fill="#BEBEBE"/>
<rect x="80" y="165.5" width="1" height="1" rx="0.5" fill="#BEBEBE"/>
<rect x="100" y="84" width="1" height="1" rx="0.5" fill="#BEBEBE"/>
<rect x="100" y="165.5" width="1" height="1" rx="0.5" fill="#BEBEBE"/>
<rect x="120" y="84" width="1" height="1" rx="0.5" fill="#BEBEBE"/>
<rect x="120" y="165.5" width="1" height="1" rx="0.5" fill="#BEBEBE"/>
<rect x="140" y="84" width="1" height="1" rx="0.5" fill="#BEBEBE"/>
<rect x="140" y="165.5" width="1" height="1" rx="0.5" fill="#BEBEBE"/>
<rect x="160" y="84" width="1" height="1" rx="0.5" fill="#BEBEBE"/>
<rect x="160" y="165.5" width="1" height="1" rx="0.5" fill="#BEBEBE"/>
<rect x="180" y="84" width="1" height="1" rx="0.5" fill="#BEBEBE"/>
<rect x="180" y="165.5" width="1" height="1" rx="0.5" fill="#BEBEBE"/>
<rect x="200" y="84" width="1" height="1" rx="0.5" fill="#BEBEBE"/>
<rect x="200" y="165.5" width="1" height="1" rx="0.5" fill="#BEBEBE"/>
<rect x="220" y="84" width="1" height="1" rx="0.5" fill="#BEBEBE"/>
<rect x="220" y="165.5" width="1" height="1" rx="0.5" fill="#BEBEBE"/>
<rect x="240" y="84" width="1" height="1" rx="0.5" fill="#BEBEBE"/>
<rect x="240" y="165.5" width="1" height="1" rx="0.5" fill="#BEBEBE"/>
<rect x="260" y="84" width="1" height="1" rx="0.5" fill="#BEBEBE"/>
<rect x="260" y="165.5" width="1" height="1" rx="0.5" fill="#BEBEBE"/>
<rect x="280" y="84" width="1" height="1" rx="0.5" fill="#BEBEBE"/>
<rect x="280" y="165.5" width="1" height="1" rx="0.5" fill="#BEBEBE"/>
<rect x="300" y="84" width="1" height="1" rx="0.5" fill="#BEBEBE"/>
<rect x="300" y="165.5" width="1" height="1" rx="0.5" fill="#BEBEBE"/>
<rect x="320" y="84" width="1" height="1" rx="0.5" fill="#BEBEBE"/>
<rect x="320" y="165.5" width="1" height="1" rx="0.5" fill="#BEBEBE"/>
<rect x="340" y="84" width="1" height="1" rx="0.5" fill="#BEBEBE"/>
<rect x="340" y="165.5" width="1" height="1" rx="0.5" fill="#BEBEBE"/>
<defs>
<filter id="filter0_d_12_4621" x="136.5" y="0.5" width="8" height="8" filterUnits="userSpaceOnUse" color-interpolation-filters="sRGB">
<feFlood flood-opacity="0" result="BackgroundImageFix"/>
<feColorMatrix in="SourceAlpha" type="matrix" values="0 0 0 0 0 0 0 0 0 0 0 0 0 0 0 0 0 0 127 0" result="hardAlpha"/>
<feMorphology radius="1" operator="dilate" in="SourceAlpha" result="effect1_dropShadow_12_4621"/>
<feOffset/>
<feGaussianBlur stdDeviation="1"/>
<feComposite in2="hardAlpha" operator="out"/>
<feColorMatrix type="matrix" values="0 0 0 0 0.196078 0 0 0 0 0.568627 0 0 0 0 1 0 0 0 0.25 0"/>
<feBlend mode="normal" in2="BackgroundImageFix" result="effect1_dropShadow_12_4621"/>
<feBlend mode="normal" in="SourceGraphic" in2="effect1_dropShadow_12_4621" result="shape"/>
</filter>
<filter id="filter1_d_12_4621" x="136.5" y="82" width="8" height="8" filterUnits="userSpaceOnUse" color-interpolation-filters="sRGB">
<feFlood flood-opacity="0" result="BackgroundImageFix"/>
<feColorMatrix in="SourceAlpha" type="matrix" values="0 0 0 0 0 0 0 0 0 0 0 0 0 0 0 0 0 0 127 0" result="hardAlpha"/>
<feMorphology radius="1" operator="dilate" in="SourceAlpha" result="effect1_dropShadow_12_4621"/>
<feOffset/>
<feGaussianBlur stdDeviation="1"/>
<feComposite in2="hardAlpha" operator="out"/>
<feColorMatrix type="matrix" values="0 0 0 0 0.196078 0 0 0 0 0.568627 0 0 0 0 1 0 0 0 0.25 0"/>
<feBlend mode="normal" in2="BackgroundImageFix" result="effect1_dropShadow_12_4621"/>
<feBlend mode="normal" in="SourceGraphic" in2="effect1_dropShadow_12_4621" result="shape"/>
</filter>
<filter id="filter2_dd_12_4621" x="297" y="1" width="7" height="7" filterUnits="userSpaceOnUse" color-interpolation-filters="sRGB">
<feFlood flood-opacity="0" result="BackgroundImageFix"/>
<feColorMatrix in="SourceAlpha" type="matrix" values="0 0 0 0 0 0 0 0 0 0 0 0 0 0 0 0 0 0 127 0" result="hardAlpha"/>
<feMorphology radius="1" operator="dilate" in="SourceAlpha" result="effect1_dropShadow_12_4621"/>
<feOffset/>
<feGaussianBlur stdDeviation="1"/>
<feComposite in2="hardAlpha" operator="out"/>
<feColorMatrix type="matrix" values="0 0 0 0 0.196078 0 0 0 0 0.568627 0 0 0 0 1 0 0 0 0.25 0"/>
<feBlend mode="normal" in2="BackgroundImageFix" result="effect1_dropShadow_12_4621"/>
<feColorMatrix in="SourceAlpha" type="matrix" values="0 0 0 0 0 0 0 0 0 0 0 0 0 0 0 0 0 0 127 0" result="hardAlpha"/>
<feMorphology radius="1" operator="dilate" in="SourceAlpha" result="effect2_dropShadow_12_4621"/>
<feOffset/>
<feGaussianBlur stdDeviation="0.5"/>
<feComposite in2="hardAlpha" operator="out"/>
<feColorMatrix type="matrix" values="0 0 0 0 0.196078 0 0 0 0 0.568627 0 0 0 0 1 0 0 0 0.8 0"/>
<feBlend mode="normal" in2="effect1_dropShadow_12_4621" result="effect2_dropShadow_12_4621"/>
<feBlend mode="normal" in="SourceGraphic" in2="effect2_dropShadow_12_4621" result="shape"/>
</filter>
<filter id="filter3_dd_12_4621" x="297" y="82.5" width="7" height="7" filterUnits="userSpaceOnUse" color-interpolation-filters="sRGB">
<feFlood flood-opacity="0" result="BackgroundImageFix"/>
<feColorMatrix in="SourceAlpha" type="matrix" values="0 0 0 0 0 0 0 0 0 0 0 0 0 0 0 0 0 0 127 0" result="hardAlpha"/>
<feMorphology radius="1" operator="dilate" in="SourceAlpha" result="effect1_dropShadow_12_4621"/>
<feOffset/>
<feGaussianBlur stdDeviation="1"/>
<feComposite in2="hardAlpha" operator="out"/>
<feColorMatrix type="matrix" values="0 0 0 0 0.196078 0 0 0 0 0.568627 0 0 0 0 1 0 0 0 0.25 0"/>
<feBlend mode="normal" in2="BackgroundImageFix" result="effect1_dropShadow_12_4621"/>
<feColorMatrix in="SourceAlpha" type="matrix" values="0 0 0 0 0 0 0 0 0 0 0 0 0 0 0 0 0 0 127 0" result="hardAlpha"/>
<feMorphology radius="1" operator="dilate" in="SourceAlpha" result="effect2_dropShadow_12_4621"/>
<feOffset/>
<feGaussianBlur stdDeviation="0.5"/>
<feComposite in2="hardAlpha" operator="out"/>
<feColorMatrix type="matrix" values="0 0 0 0 0.196078 0 0 0 0 0.568627 0 0 0 0 1 0 0 0 0.8 0"/>
<feBlend mode="normal" in2="effect1_dropShadow_12_4621" result="effect2_dropShadow_12_4621"/>
<feBlend mode="normal" in="SourceGraphic" in2="effect2_dropShadow_12_4621" result="shape"/>
</filter>
<filter id="filter4_d_12_4621" x="156.5" y="20.5" width="8" height="8" filterUnits="userSpaceOnUse" color-interpolation-filters="sRGB">
<feFlood flood-opacity="0" result="BackgroundImageFix"/>
<feColorMatrix in="SourceAlpha" type="matrix" values="0 0 0 0 0 0 0 0 0 0 0 0 0 0 0 0 0 0 127 0" result="hardAlpha"/>
<feMorphology radius="1" operator="dilate" in="SourceAlpha" result="effect1_dropShadow_12_4621"/>
<feOffset/>
<feGaussianBlur stdDeviation="1"/>
<feComposite in2="hardAlpha" operator="out"/>
<feColorMatrix type="matrix" values="0 0 0 0 0.196078 0 0 0 0 0.568627 0 0 0 0 1 0 0 0 0.25 0"/>
<feBlend mode="normal" in2="BackgroundImageFix" result="effect1_dropShadow_12_4621"/>
<feBlend mode="normal" in="SourceGraphic" in2="effect1_dropShadow_12_4621" result="shape"/>
</filter>
<filter id="filter5_d_12_4621" x="156.5" y="102" width="8" height="8" filterUnits="userSpaceOnUse" color-interpolation-filters="sRGB">
<feFlood flood-opacity="0" result="BackgroundImageFix"/>
<feColorMatrix in="SourceAlpha" type="matrix" values="0 0 0 0 0 0 0 0 0 0 0 0 0 0 0 0 0 0 127 0" result="hardAlpha"/>
<feMorphology radius="1" operator="dilate" in="SourceAlpha" result="effect1_dropShadow_12_4621"/>
<feOffset/>
<feGaussianBlur stdDeviation="1"/>
<feComposite in2="hardAlpha" operator="out"/>
<feColorMatrix type="matrix" values="0 0 0 0 0.196078 0 0 0 0 0.568627 0 0 0 0 1 0 0 0 0.25 0"/>
<feBlend mode="normal" in2="BackgroundImageFix" result="effect1_dropShadow_12_4621"/>
<feBlend mode="normal" in="SourceGraphic" in2="effect1_dropShadow_12_4621" result="shape"/>
</filter>
<filter id="filter6_dd_12_4621" x="317" y="21" width="7" height="7" filterUnits="userSpaceOnUse" color-interpolation-filters="sRGB">
<feFlood flood-opacity="0" result="BackgroundImageFix"/>
<feColorMatrix in="SourceAlpha" type="matrix" values="0 0 0 0 0 0 0 0 0 0 0 0 0 0 0 0 0 0 127 0" result="hardAlpha"/>
<feMorphology radius="1" operator="dilate" in="SourceAlpha" result="effect1_dropShadow_12_4621"/>
<feOffset/>
<feGaussianBlur stdDeviation="1"/>
<feComposite in2="hardAlpha" operator="out"/>
<feColorMatrix type="matrix" values="0 0 0 0 0.196078 0 0 0 0 0.568627 0 0 0 0 1 0 0 0 0.25 0"/>
<feBlend mode="normal" in2="BackgroundImageFix" result="effect1_dropShadow_12_4621"/>
<feColorMatrix in="SourceAlpha" type="matrix" values="0 0 0 0 0 0 0 0 0 0 0 0 0 0 0 0 0 0 127 0" result="hardAlpha"/>
<feMorphology radius="1" operator="dilate" in="SourceAlpha" result="effect2_dropShadow_12_4621"/>
<feOffset/>
<feGaussianBlur stdDeviation="0.5"/>
<feComposite in2="hardAlpha" operator="out"/>
<feColorMatrix type="matrix" values="0 0 0 0 0.196078 0 0 0 0 0.568627 0 0 0 0 1 0 0 0 0.8 0"/>
<feBlend mode="normal" in2="effect1_dropShadow_12_4621" result="effect2_dropShadow_12_4621"/>
<feBlend mode="normal" in="SourceGraphic" in2="effect2_dropShadow_12_4621" result="shape"/>
</filter>
<filter id="filter7_dd_12_4621" x="317" y="102.5" width="7" height="7" filterUnits="userSpaceOnUse" color-interpolation-filters="sRGB">
<feFlood flood-opacity="0" result="BackgroundImageFix"/>
<feColorMatrix in="SourceAlpha" type="matrix" values="0 0 0 0 0 0 0 0 0 0 0 0 0 0 0 0 0 0 127 0" result="hardAlpha"/>
<feMorphology radius="1" operator="dilate" in="SourceAlpha" result="effect1_dropShadow_12_4621"/>
<feOffset/>
<feGaussianBlur stdDeviation="1"/>
<feComposite in2="hardAlpha" operator="out"/>
<feColorMatrix type="matrix" values="0 0 0 0 0.196078 0 0 0 0 0.568627 0 0 0 0 1 0 0 0 0.25 0"/>
<feBlend mode="normal" in2="BackgroundImageFix" result="effect1_dropShadow_12_4621"/>
<feColorMatrix in="SourceAlpha" type="matrix" values="0 0 0 0 0 0 0 0 0 0 0 0 0 0 0 0 0 0 127 0" result="hardAlpha"/>
<feMorphology radius="1" operator="dilate" in="SourceAlpha" result="effect2_dropShadow_12_4621"/>
<feOffset/>
<feGaussianBlur stdDeviation="0.5"/>
<feComposite in2="hardAlpha" operator="out"/>
<feColorMatrix type="matrix" values="0 0 0 0 0.196078 0 0 0 0 0.568627 0 0 0 0 1 0 0 0 0.8 0"/>
<feBlend mode="normal" in2="effect1_dropShadow_12_4621" result="effect2_dropShadow_12_4621"/>
<feBlend mode="normal" in="SourceGraphic" in2="effect2_dropShadow_12_4621" result="shape"/>
</filter>
<filter id="filter8_d_12_4621" x="117" y="61" width="7" height="7" filterUnits="userSpaceOnUse" color-interpolation-filters="sRGB">
<feFlood flood-opacity="0" result="BackgroundImageFix"/>
<feColorMatrix in="SourceAlpha" type="matrix" values="0 0 0 0 0 0 0 0 0 0 0 0 0 0 0 0 0 0 127 0" result="hardAlpha"/>
<feMorphology radius="1" operator="dilate" in="SourceAlpha" result="effect1_dropShadow_12_4621"/>
<feOffset/>
<feGaussianBlur stdDeviation="1"/>
<feComposite in2="hardAlpha" operator="out"/>
<feColorMatrix type="matrix" values="0 0 0 0 0.196078 0 0 0 0 0.568627 0 0 0 0 1 0 0 0 0.25 0"/>
<feBlend mode="normal" in2="BackgroundImageFix" result="effect1_dropShadow_12_4621"/>
<feBlend mode="normal" in="SourceGraphic" in2="effect1_dropShadow_12_4621" result="shape"/>
</filter>
<filter id="filter9_d_12_4621" x="117" y="142.5" width="7" height="7" filterUnits="userSpaceOnUse" color-interpolation-filters="sRGB">
<feFlood flood-opacity="0" result="BackgroundImageFix"/>
<feColorMatrix in="SourceAlpha" type="matrix" values="0 0 0 0 0 0 0 0 0 0 0 0 0 0 0 0 0 0 127 0" result="hardAlpha"/>
<feMorphology radius="1" operator="dilate" in="SourceAlpha" result="effect1_dropShadow_12_4621"/>
<feOffset/>
<feGaussianBlur stdDeviation="1"/>
<feComposite in2="hardAlpha" operator="out"/>
<feColorMatrix type="matrix" values="0 0 0 0 0.196078 0 0 0 0 0.568627 0 0 0 0 1 0 0 0 0.25 0"/>
<feBlend mode="normal" in2="BackgroundImageFix" result="effect1_dropShadow_12_4621"/>
<feBlend mode="normal" in="SourceGraphic" in2="effect1_dropShadow_12_4621" result="shape"/>
</filter>
<filter id="filter10_dd_12_4621" x="257" y="61" width="7" height="7" filterUnits="userSpaceOnUse" color-interpolation-filters="sRGB">
<feFlood flood-opacity="0" result="BackgroundImageFix"/>
<feColorMatrix in="SourceAlpha" type="matrix" values="0 0 0 0 0 0 0 0 0 0 0 0 0 0 0 0 0 0 127 0" result="hardAlpha"/>
<feMorphology radius="1" operator="dilate" in="SourceAlpha" result="effect1_dropShadow_12_4621"/>
<feOffset/>
<feGaussianBlur stdDeviation="1"/>
<feComposite in2="hardAlpha" operator="out"/>
<feColorMatrix type="matrix" values="0 0 0 0 0.196078 0 0 0 0 0.568627 0 0 0 0 1 0 0 0 0.25 0"/>
<feBlend mode="normal" in2="BackgroundImageFix" result="effect1_dropShadow_12_4621"/>
<feColorMatrix in="SourceAlpha" type="matrix" values="0 0 0 0 0 0 0 0 0 0 0 0 0 0 0 0 0 0 127 0" result="hardAlpha"/>
<feMorphology radius="1" operator="dilate" in="SourceAlpha" result="effect2_dropShadow_12_4621"/>
<feOffset/>
<feGaussianBlur stdDeviation="0.5"/>
<feComposite in2="hardAlpha" operator="out"/>
<feColorMatrix type="matrix" values="0 0 0 0 0.196078 0 0 0 0 0.568627 0 0 0 0 1 0 0 0 0.8 0"/>
<feBlend mode="normal" in2="effect1_dropShadow_12_4621" result="effect2_dropShadow_12_4621"/>
<feBlend mode="normal" in="SourceGraphic" in2="effect2_dropShadow_12_4621" result="shape"/>
</filter>
<filter id="filter11_dd_12_4621" x="257" y="142.5" width="7" height="7" filterUnits="userSpaceOnUse" color-interpolation-filters="sRGB">
<feFlood flood-opacity="0" result="BackgroundImageFix"/>
<feColorMatrix in="SourceAlpha" type="matrix" values="0 0 0 0 0 0 0 0 0 0 0 0 0 0 0 0 0 0 127 0" result="hardAlpha"/>
<feMorphology radius="1" operator="dilate" in="SourceAlpha" result="effect1_dropShadow_12_4621"/>
<feOffset/>
<feGaussianBlur stdDeviation="1"/>
<feComposite in2="hardAlpha" operator="out"/>
<feColorMatrix type="matrix" values="0 0 0 0 0.196078 0 0 0 0 0.568627 0 0 0 0 1 0 0 0 0.25 0"/>
<feBlend mode="normal" in2="BackgroundImageFix" result="effect1_dropShadow_12_4621"/>
<feColorMatrix in="SourceAlpha" type="matrix" values="0 0 0 0 0 0 0 0 0 0 0 0 0 0 0 0 0 0 127 0" result="hardAlpha"/>
<feMorphology radius="1" operator="dilate" in="SourceAlpha" result="effect2_dropShadow_12_4621"/>
<feOffset/>
<feGaussianBlur stdDeviation="0.5"/>
<feComposite in2="hardAlpha" operator="out"/>
<feColorMatrix type="matrix" values="0 0 0 0 0.196078 0 0 0 0 0.568627 0 0 0 0 1 0 0 0 0.8 0"/>
<feBlend mode="normal" in2="effect1_dropShadow_12_4621" result="effect2_dropShadow_12_4621"/>
<feBlend mode="normal" in="SourceGraphic" in2="effect2_dropShadow_12_4621" result="shape"/>
</filter>
<filter id="filter12_d_12_4621" x="317" y="61" width="7" height="7" filterUnits="userSpaceOnUse" color-interpolation-filters="sRGB">
<feFlood flood-opacity="0" result="BackgroundImageFix"/>
<feColorMatrix in="SourceAlpha" type="matrix" values="0 0 0 0 0 0 0 0 0 0 0 0 0 0 0 0 0 0 127 0" result="hardAlpha"/>
<feMorphology radius="1" operator="dilate" in="SourceAlpha" result="effect1_dropShadow_12_4621"/>
<feOffset/>
<feGaussianBlur stdDeviation="1"/>
<feComposite in2="hardAlpha" operator="out"/>
<feColorMatrix type="matrix" values="0 0 0 0 0.196078 0 0 0 0 0.568627 0 0 0 0 1 0 0 0 0.25 0"/>
<feBlend mode="normal" in2="BackgroundImageFix" result="effect1_dropShadow_12_4621"/>
<feBlend mode="normal" in="SourceGraphic" in2="effect1_dropShadow_12_4621" result="shape"/>
</filter>
<filter id="filter13_d_12_4621" x="317" y="142.5" width="7" height="7" filterUnits="userSpaceOnUse" color-interpolation-filters="sRGB">
<feFlood flood-opacity="0" result="BackgroundImageFix"/>
<feColorMatrix in="SourceAlpha" type="matrix" values="0 0 0 0 0 0 0 0 0 0 0 0 0 0 0 0 0 0 127 0" result="hardAlpha"/>
<feMorphology radius="1" operator="dilate" in="SourceAlpha" result="effect1_dropShadow_12_4621"/>
<feOffset/>
<feGaussianBlur stdDeviation="1"/>
<feComposite in2="hardAlpha" operator="out"/>
<feColorMatrix type="matrix" values="0 0 0 0 0.196078 0 0 0 0 0.568627 0 0 0 0 1 0 0 0 0.25 0"/>
<feBlend mode="normal" in2="BackgroundImageFix" result="effect1_dropShadow_12_4621"/>
<feBlend mode="normal" in="SourceGraphic" in2="effect1_dropShadow_12_4621" result="shape"/>
</filter>
<filter id="filter14_dd_12_4621" x="37" y="81" width="7" height="7" filterUnits="userSpaceOnUse" color-interpolation-filters="sRGB">
<feFlood flood-opacity="0" result="BackgroundImageFix"/>
<feColorMatrix in="SourceAlpha" type="matrix" values="0 0 0 0 0 0 0 0 0 0 0 0 0 0 0 0 0 0 127 0" result="hardAlpha"/>
<feMorphology radius="1" operator="dilate" in="SourceAlpha" result="effect1_dropShadow_12_4621"/>
<feOffset/>
<feGaussianBlur stdDeviation="1"/>
<feComposite in2="hardAlpha" operator="out"/>
<feColorMatrix type="matrix" values="0 0 0 0 0.196078 0 0 0 0 0.568627 0 0 0 0 1 0 0 0 0.25 0"/>
<feBlend mode="normal" in2="BackgroundImageFix" result="effect1_dropShadow_12_4621"/>
<feColorMatrix in="SourceAlpha" type="matrix" values="0 0 0 0 0 0 0 0 0 0 0 0 0 0 0 0 0 0 127 0" result="hardAlpha"/>
<feMorphology radius="1" operator="dilate" in="SourceAlpha" result="effect2_dropShadow_12_4621"/>
<feOffset/>
<feGaussianBlur stdDeviation="0.5"/>
<feComposite in2="hardAlpha" operator="out"/>
<feColorMatrix type="matrix" values="0 0 0 0 0.196078 0 0 0 0 0.568627 0 0 0 0 1 0 0 0 0.8 0"/>
<feBlend mode="normal" in2="effect1_dropShadow_12_4621" result="effect2_dropShadow_12_4621"/>
<feBlend mode="normal" in="SourceGraphic" in2="effect2_dropShadow_12_4621" result="shape"/>
</filter>
<filter id="filter15_dd_12_4621" x="37" y="162.5" width="7" height="7" filterUnits="userSpaceOnUse" color-interpolation-filters="sRGB">
<feFlood flood-opacity="0" result="BackgroundImageFix"/>
<feColorMatrix in="SourceAlpha" type="matrix" values="0 0 0 0 0 0 0 0 0 0 0 0 0 0 0 0 0 0 127 0" result="hardAlpha"/>
<feMorphology radius="1" operator="dilate" in="SourceAlpha" result="effect1_dropShadow_12_4621"/>
<feOffset/>
<feGaussianBlur stdDeviation="1"/>
<feComposite in2="hardAlpha" operator="out"/>
<feColorMatrix type="matrix" values="0 0 0 0 0.196078 0 0 0 0 0.568627 0 0 0 0 1 0 0 0 0.25 0"/>
<feBlend mode="normal" in2="BackgroundImageFix" result="effect1_dropShadow_12_4621"/>
<feColorMatrix in="SourceAlpha" type="matrix" values="0 0 0 0 0 0 0 0 0 0 0 0 0 0 0 0 0 0 127 0" result="hardAlpha"/>
<feMorphology radius="1" operator="dilate" in="SourceAlpha" result="effect2_dropShadow_12_4621"/>
<feOffset/>
<feGaussianBlur stdDeviation="0.5"/>
<feComposite in2="hardAlpha" operator="out"/>
<feColorMatrix type="matrix" values="0 0 0 0 0.196078 0 0 0 0 0.568627 0 0 0 0 1 0 0 0 0.8 0"/>
<feBlend mode="normal" in2="effect1_dropShadow_12_4621" result="effect2_dropShadow_12_4621"/>
<feBlend mode="normal" in="SourceGraphic" in2="effect2_dropShadow_12_4621" result="shape"/>
</filter>
</defs>
</svg>
