<svg width="296" height="141" viewBox="0 0 296 141" fill="none" xmlns="http://www.w3.org/2000/svg">
<rect x="87" y="51" width="29" height="3" rx="1.5" fill="#D3D4D5"/>
<path d="M168.5 58.5H207C207.828 58.5 208.5 59.1716 208.5 60V87C208.5 87.8284 207.828 88.5 207 88.5H168.5V58.5Z" fill="white"/>
<path d="M168.5 58.5H207C207.828 58.5 208.5 59.1716 208.5 60V87C208.5 87.8284 207.828 88.5 207 88.5H168.5V58.5Z" stroke="#E7E7E8"/>
<rect x="173" y="62" width="10" height="3" rx="1.5" fill="#D3D4D5"/>
<path d="M201.176 62.4494C201.335 62.2282 201.665 62.2282 201.824 62.4494L203.207 64.3659C203.398 64.6305 203.209 65 202.883 65H200.117C199.791 65 199.602 64.6305 199.793 64.3659L201.176 62.4494Z" fill="#0EA371"/>
<path d="M173 70C173 68.8954 173.895 68 175 68H184C185.105 68 186 68.8954 186 70V71C186 72.1046 185.105 73 184 73H175C173.895 73 173 72.1046 173 71V70Z" fill="#ABADAF"/>
<rect x="173" y="76" width="25" height="3" rx="1.5" fill="#D3D4D5"/>
<rect x="173" y="82" width="25" height="3" rx="1.5" fill="#D3D4D5"/>
<mask id="path-8-inside-1_78_6881" fill="white">
<path d="M127 58H169V89H127V58Z"/>
</mask>
<path d="M127 58H169V89H127V58Z" fill="white"/>
<path d="M169 58H170V57H169V58ZM169 89V90H170V89H169ZM127 59H169V57H127V59ZM168 58V89H170V58H168ZM169 88H127V90H169V88Z" fill="#E7E7E8" mask="url(#path-8-inside-1_78_6881)"/>
<rect x="132" y="62" width="10" height="3" rx="1.5" fill="#D3D4D5"/>
<path d="M161.176 62.4494C161.335 62.2282 161.665 62.2282 161.824 62.4494L163.207 64.3659C163.398 64.6305 163.209 65 162.883 65H160.117C159.791 65 159.602 64.6305 159.793 64.3659L161.176 62.4494Z" fill="#0EA371"/>
<path d="M132 70C132 68.8954 132.895 68 134 68H143C144.105 68 145 68.8954 145 70V71C145 72.1046 144.105 73 143 73H134C132.895 73 132 72.1046 132 71V70Z" fill="#ABADAF"/>
<rect x="132" y="76" width="25" height="3" rx="1.5" fill="#D3D4D5"/>
<rect x="132" y="82" width="25" height="3" rx="1.5" fill="#D3D4D5"/>
<mask id="path-15-inside-2_78_6881" fill="white">
<path d="M87 60C87 58.8954 87.8954 58 89 58H128V89H89C87.8954 89 87 88.1046 87 87V60Z"/>
</mask>
<path d="M87 60C87 58.8954 87.8954 58 89 58H128V89H89C87.8954 89 87 88.1046 87 87V60Z" fill="white"/>
<path d="M128 58H129V57H128V58ZM128 89V90H129V89H128ZM89 59H128V57H89V59ZM127 58V89H129V58H127ZM128 88H89V90H128V88ZM88 87V60H86V87H88ZM89 88C88.4477 88 88 87.5523 88 87H86C86 88.6569 87.3431 90 89 90V88ZM89 57C87.3431 57 86 58.3431 86 60H88C88 59.4477 88.4477 59 89 59V57Z" fill="#E7E7E8" mask="url(#path-15-inside-2_78_6881)"/>
<rect x="92" y="62" width="10" height="3" rx="1.5" fill="#D3D4D5"/>
<path d="M120.824 65.5506C120.665 65.7718 120.335 65.7718 120.176 65.5506L118.793 63.6341C118.602 63.3695 118.791 63 119.117 63L121.883 63C122.209 63 122.398 63.3695 122.207 63.6341L120.824 65.5506Z" fill="#E53E3E"/>
<path d="M92 70C92 68.8954 92.8954 68 94 68H103C104.105 68 105 68.8954 105 70V71C105 72.1046 104.105 73 103 73H94C92.8954 73 92 72.1046 92 71V70Z" fill="#ABADAF"/>
<rect x="92" y="76" width="25" height="3" rx="1.5" fill="#D3D4D5"/>
<rect x="92" y="82" width="25" height="3" rx="1.5" fill="#D3D4D5"/>
</svg>
