<svg width="296" height="141" viewBox="0 0 296 141" fill="none" xmlns="http://www.w3.org/2000/svg">
<rect x="90.5" y="21.5" width="115" height="30" rx="5.5" fill="white"/>
<rect x="90.5" y="21.5" width="115" height="30" rx="5.5" stroke="#D3D4D5"/>
<rect x="98" y="27.5" width="18" height="18" rx="9" fill="#E7E7E8"/>
<path d="M107 36.5C105.891 36.5 105 35.6094 105 34.5C105 33.4062 105.891 32.5 107 32.5C108.094 32.5 109 33.4062 109 34.5C109 35.6094 108.094 36.5 107 36.5ZM107.781 37.25C109.281 37.25 110.5 38.4688 110.5 39.9688C110.5 40.2656 110.25 40.5 109.953 40.5H104.031C103.734 40.5 103.5 40.2656 103.5 39.9688C103.5 38.4688 104.703 37.25 106.203 37.25H107.781Z" fill="#ABADAF"/>
<rect x="120" y="31" width="55" height="3" rx="1.5" fill="#ABADAF"/>
<rect x="120" y="38" width="32" height="3" rx="1.5" fill="#D3D4D5"/>
<path d="M191 34C191 33.4531 191.438 33 192 33H197C197.547 33 198 33.4531 198 34V39C198 39.5625 197.547 40 197 40H192C191.438 40 191 39.5625 191 39V34Z" fill="#D3D4D5"/>
<rect x="90.5" y="56.5" width="115" height="29" rx="5.5" fill="#F9FAFA"/>
<rect x="90.5" y="56.5" width="115" height="29" rx="5.5" stroke="#D3D4D5"/>
<rect x="98" y="62" width="18" height="18" rx="9" fill="#E7E7E8"/>
<path d="M107 71C105.891 71 105 70.1094 105 69C105 67.9062 105.891 67 107 67C108.094 67 109 67.9062 109 69C109 70.1094 108.094 71 107 71ZM107.781 71.75C109.281 71.75 110.5 72.9688 110.5 74.4688C110.5 74.7656 110.25 75 109.953 75H104.031C103.734 75 103.5 74.7656 103.5 74.4688C103.5 72.9688 104.703 71.75 106.203 71.75H107.781Z" fill="#ABADAF"/>
<rect x="120" y="66" width="55" height="3" rx="1.5" fill="#ABADAF"/>
<rect x="120" y="73" width="32" height="3" rx="1.5" fill="#D3D4D5"/>
<path d="M197 67.5C197.547 67.5 198 67.9531 198 68.5V73.5C198 74.0625 197.547 74.5 197 74.5H192C191.438 74.5 191 74.0625 191 73.5V68.5C191 67.9531 191.438 67.5 192 67.5H197ZM196.297 70.3125C196.469 70.1406 196.469 69.875 196.297 69.7031C196.125 69.5312 195.859 69.5312 195.688 69.7031L194 71.3906L193.297 70.7031C193.125 70.5312 192.859 70.5312 192.688 70.7031C192.516 70.875 192.516 71.1406 192.688 71.3125L193.688 72.3125C193.859 72.4844 194.125 72.4844 194.297 72.3125L196.297 70.3125Z" fill="#8952E0"/>
<rect x="90.5" y="90.5" width="115" height="29" rx="5.5" fill="white"/>
<rect x="90.5" y="90.5" width="115" height="29" rx="5.5" stroke="#D3D4D5"/>
<rect x="98" y="96" width="18" height="18" rx="9" fill="#E7E7E8"/>
<path d="M107 105C105.891 105 105 104.109 105 103C105 101.906 105.891 101 107 101C108.094 101 109 101.906 109 103C109 104.109 108.094 105 107 105ZM107.781 105.75C109.281 105.75 110.5 106.969 110.5 108.469C110.5 108.766 110.25 109 109.953 109H104.031C103.734 109 103.5 108.766 103.5 108.469C103.5 106.969 104.703 105.75 106.203 105.75H107.781Z" fill="#ABADAF"/>
<rect x="120" y="100" width="55" height="3" rx="1.5" fill="#ABADAF"/>
<rect x="120" y="107" width="32" height="3" rx="1.5" fill="#D3D4D5"/>
<path d="M191 102.5C191 101.953 191.438 101.5 192 101.5H197C197.547 101.5 198 101.953 198 102.5V107.5C198 108.062 197.547 108.5 197 108.5H192C191.438 108.5 191 108.062 191 107.5V102.5Z" fill="#D3D4D5"/>
</svg>
